# xmcd
#
# Track frame offsets: 
#        150
#        14482
#        34825
#        53655
#        68437
#        81646
#        97937
#        115361
#        129606
#        140868
#
# Disc length: 2155 seconds
#
# Revision: 0
# Processed by: cddbd v1.5.2PL0 Copyright (c) Steve Scherf et al.
# Submitted via: ExactAudioCopy v0.95b4
#
DISCID=8b08690a
DTITLE=Doop and The Inside Outlaws - Blood River
DYEAR=2007
DGENRE=Country
TTITLE0=Shoot You Down
TTITLE1=Without You
TTITLE2=Let You Bleed
TTITLE3=If I Were You I'd Probably Hate Me Too
TTITLE4=Who's To Say
TTITLE5=Blood River
TTITLE6=Tougher On You
TTITLE7=Again
TTITLE8=Done Em Right
TTITLE9=No Way To Live
EXTD=
EXTT0=
EXTT1=
EXTT2=
EXTT3=
EXTT4=
EXTT5=
EXTT6=
EXTT7=
EXTT8=
EXTT9=
PLAYORDER=
